<?xml version="1.0" encoding="UTF-8" standalone="no"?>
<svg
   xmlns:dc="http://purl.org/dc/elements/1.1/"
   xmlns:cc="http://creativecommons.org/ns#"
   xmlns:rdf="http://www.w3.org/1999/02/22-rdf-syntax-ns#"
   xmlns:svg="http://www.w3.org/2000/svg"
   xmlns="http://www.w3.org/2000/svg"
   version="1.0"
   width="8.8301544"
   height="15"
   viewBox="0 0 6.6226156 11.250001"
   preserveAspectRatio="xMidYMid meet"
   id="svg8">
  <defs
     id="defs12" />
  <metadata
     id="metadata2">
Created by potrace 1.13, written by Peter Selinger 2001-2015
<rdf:RDF>
  <cc:Work
     rdf:about="">
    <dc:format>image/svg+xml</dc:format>
    <dc:type
       rdf:resource="http://purl.org/dc/dcmitype/StillImage" />
    <dc:title></dc:title>
  </cc:Work>
</rdf:RDF>
</metadata>
  <path
     style="fill:#222222;fill-opacity:1;stroke-width:0"
     d="M 1.0518547,0.00180501 C 0.17876441,0.02118501 -0.26246825,1.1038716 0.16489562,1.8120605 0.49240914,1.612748 1.0985361,1.3379976 1.2896867,1.8458105 1.7533444,2.9139396 1.3028117,4.1316936 0.85320405,5.1278211 0.65701592,5.6156361 0.26638969,5.9934487 0.02500767,6.4428877 -0.01342995,6.8620777 0.66041589,6.7875772 0.92594802,6.9913282 1.3255681,7.0628332 1.4807185,6.3150127 1.7933195,6.0679492 2.2700398,5.4178221 2.7788665,4.7684451 3.2818303,4.1317551 3.0067984,5.0982591 3.1770238,6.4339507 4.2107584,6.8737642 4.6818976,7.0752652 5.2402493,6.9663292 5.6209379,6.6303262 5.3643933,7.8652057 4.801404,9.3000233 3.502869,9.7500863 2.5773845,10.05965 1.6631753,9.4187723 1.228124,8.6308957 0.91510423,8.3937067 0.76580378,8.8713952 0.86998536,9.1093342 1.0524359,10.201651 1.9298699,11.378779 3.1559299,11.23859 4.6146721,11.082403 5.4369249,9.6475853 5.9035325,8.4042697 6.2950463,7.3476412 6.541272,6.2088247 6.622616,5.0858841 6.4513095,4.5257571 5.5746818,4.7588826 5.6125442,5.3096976 5.6667947,5.6565726 5.0929491,5.6258856 4.8486979,5.5811361 3.9929016,5.4019476 3.9513703,4.3030071 4.2051585,3.6309426 4.546422,2.3944386 5.5200626,1.5018725 6.3512088,0.60074461 6.4125213,0.02493051 5.5792692,-0.11775699 5.1844552,0.11111761 4.0962769,1.1769966 3.13078,2.3731251 2.1990209,3.5805666 2.4628967,2.5516251 2.5736345,1.3345596 1.9695826,0.40486861 1.7455132,0.13799311 1.4022933,-0.01975749 1.0518547,0.00199251 Z"
     id="kai-greek" />
</svg>
