<?xml version="1.0" encoding="UTF-8" standalone="no"?>
<svg
   xmlns:dc="http://purl.org/dc/elements/1.1/"
   xmlns:cc="http://creativecommons.org/ns#"
   xmlns:rdf="http://www.w3.org/1999/02/22-rdf-syntax-ns#"
   xmlns:svg="http://www.w3.org/2000/svg"
   xmlns="http://www.w3.org/2000/svg"
   id="svg8"
   preserveAspectRatio="xMidYMid meet"
   viewBox="0 0 28.256492 48.000001"
   height="64"
   width="37.675323"
   version="1.0">
  <defs
     id="defs12" />
  <metadata
     id="metadata2">
Created by potrace 1.13, written by Peter Selinger 2001-2015
<rdf:RDF>
  <cc:Work
     rdf:about="">
    <dc:format>image/svg+xml</dc:format>
    <dc:type
       rdf:resource="http://purl.org/dc/dcmitype/StillImage" />
    <dc:title></dc:title>
  </cc:Work>
</rdf:RDF>
</metadata>
  <path
     id="kai-greek"
     d="M 4.4879131,0.00770189 C 0.76272815,0.09037019 -1.1198645,4.7098496 0.70355463,7.731459 2.1009456,6.8810561 4.6870871,5.7087865 5.502663,7.87546 c 1.9782729,4.557347 0.055999,9.753095 -1.8623259,14.003243 -0.8370693,2.08134 -2.5037411,3.693344 -3.53363769,5.610949 -0.16400051,1.78854 2.71107499,1.470673 3.84401199,2.340009 1.7050453,0.305068 2.3670208,-2.88561 3.700785,-3.939746 2.0340064,-2.773876 4.2049996,-5.54455 6.3509796,-8.261093 -1.17347,4.123746 -0.447175,9.822698 3.963427,11.699238 2.010193,0.859736 4.392493,0.394933 6.016765,-1.03867 -1.094591,5.268815 -3.496679,11.390703 -9.037095,13.310974 C 10.99684,42.921169 7.0962146,40.18676 5.2399953,36.82515 3.9044445,35.813147 3.2674294,37.851287 3.7119374,38.866489 c 0.7784557,4.660549 4.5221741,9.682964 9.7533636,9.084829 6.223966,-0.666403 9.732244,-6.788288 11.723103,-12.093105 1.670459,-4.508281 2.721022,-9.367229 3.06809,-14.158444 -0.730908,-2.389875 -4.471186,-1.395205 -4.30964,0.954936 0.231468,1.480004 -2.216939,1.34907 -3.259077,1.158138 C 17.036379,23.048306 16.859179,18.359491 17.942009,15.492018 19.398067,10.216267 23.552267,6.407988 27.09849,2.5631768 27.360091,0.10636823 23.80488,-0.50243324 22.120341,0.47410334 17.477448,5.0218505 13.357994,10.125333 9.3824886,15.277082 10.508359,10.886935 10.98084,5.69412 8.4035521,1.7274404 7.4475224,0.58876974 5.9831178,-0.0842986 4.4879131,0.0085014 Z"
     style="fill:#ff6600;fill-opacity:1;stroke-width:0" />
</svg>
