<?xml version="1.0" standalone="no"?>
<!DOCTYPE svg PUBLIC "-//W3C//DTD SVG 20010904//EN"
 "http://www.w3.org/TR/2001/REC-SVG-20010904/DTD/svg10.dtd">
<svg version="1.0" xmlns="http://www.w3.org/2000/svg"
 width="700.000000pt" height="700.000000pt" viewBox="0 0 700.000000 700.000000"
 preserveAspectRatio="xMidYMid meet">
<metadata>
Created by potrace 1.11, written by Peter Selinger 2001-2013
</metadata>
<g transform="translate(0.000000,700.000000) scale(0.100000,-0.100000)"
fill="#000000" stroke="none">
<path d="M1985 6985 c-171 -37 -313 -135 -410 -285 -92 -143 -128 -263 -130
-435 -1 -73 3 -136 11 -162 7 -24 11 -43 9 -43 -5 0 25 -80 55 -146 l20 -43
68 38 c59 33 188 89 217 95 6 2 37 8 70 15 83 19 174 10 228 -22 57 -34 94
-83 130 -176 197 -506 133 -1047 -226 -1881 -121 -281 -153 -336 -390 -670
-183 -258 -202 -302 -163 -378 34 -65 98 -95 353 -166 51 -14 116 -37 144 -51
114 -55 194 -18 303 140 22 33 49 76 60 95 51 94 146 236 184 277 24 24 94
113 156 196 150 202 336 445 405 532 31 39 71 90 90 114 19 25 38 50 43 55 5
6 63 81 129 166 134 171 146 185 135 155 -7 -17 -21 -86 -51 -245 -11 -58 -14
-400 -4 -470 19 -139 23 -159 54 -264 92 -317 270 -543 530 -674 140 -70 252
-94 408 -87 55 2 132 13 175 25 96 26 227 90 292 141 59 47 59 45 26 -89 -14
-53 -27 -108 -30 -122 -11 -52 -15 -72 -26 -103 -5 -18 -22 -70 -36 -117 -206
-665 -543 -1136 -984 -1372 -292 -156 -568 -182 -855 -81 -281 99 -566 341
-736 625 -34 57 -89 98 -133 98 -74 0 -137 -91 -141 -204 -2 -67 44 -292 84
-404 44 -126 54 -150 106 -252 163 -325 384 -559 652 -693 174 -87 307 -116
510 -111 73 1 136 5 141 8 5 3 31 8 58 12 83 11 243 63 352 114 589 279 1047
955 1382 2040 78 254 185 700 220 920 5 36 12 74 14 85 2 11 7 43 10 70 4 28
9 64 11 80 18 116 31 225 40 330 3 39 8 90 11 115 5 57 -10 105 -52 157 -135
166 -452 106 -545 -102 -21 -48 -27 -81 -28 -157 -1 -66 -29 -108 -90 -134
-56 -24 -86 -28 -221 -28 -204 1 -323 46 -445 169 -107 106 -162 227 -190 417
-14 90 -14 278 -1 348 3 14 7 43 11 64 7 50 26 119 77 276 129 403 318 720
683 1144 112 131 183 209 401 441 252 268 234 245 234 296 0 153 -133 279
-331 312 -121 20 -213 14 -322 -22 -61 -21 -73 -30 -238 -199 -139 -141 -325
-338 -394 -416 -29 -33 -181 -202 -185 -206 -5 -4 -78 -91 -135 -158 -11 -13
-29 -34 -40 -46 -11 -12 -38 -44 -60 -70 -22 -27 -45 -54 -50 -60 -14 -16
-229 -276 -306 -371 -35 -44 -133 -167 -217 -275 -84 -107 -162 -206 -173
-220 -11 -14 -43 -55 -72 -92 -28 -37 -52 -66 -54 -65 -1 2 11 59 27 127 15
69 30 139 33 155 3 17 12 71 21 120 8 50 18 113 20 140 3 28 9 84 13 125 17
161 9 468 -16 635 -41 266 -165 576 -280 698 -79 85 -221 168 -336 197 -70 17
-238 20 -310 5z"/>
</g>
</svg>
